<svg width="1680" height="280" viewBox="0 0 1680 280" fill="none" xmlns="http://www.w3.org/2000/svg">
<path d="M1232.99 240C1202.45 231.317 1188.81 211.936 1186.49 180.539H1222.68C1221.75 223.642 1289.03 221.084 1278.96 177.205C1274.69 158.522 1234 152.088 1218.27 142.242C1177.34 116.659 1185.79 47.818 1234.47 41.1509C1277.17 35.3366 1311.74 51.1515 1313.06 97.7434L1279.73 97.5108C1280.12 51.8492 1209.89 66.0361 1228.42 103.635C1240.98 129.141 1297.79 122.784 1311.74 162.398C1324.3 197.982 1305.39 231.24 1269.11 239.922H1232.92L1232.99 240Z" fill="#E20816"/>
<path d="M447.494 240C427.962 233.798 412.847 222.557 406.026 202.633C397.577 177.903 397.732 96.6582 408.274 72.7808C432.922 17.1961 532.059 38.2826 523.921 103.17L491.521 105.496C496.172 71.4629 451.293 57.3535 438.426 87.5103C432.302 101.93 432.302 179.221 437.806 194.028C449.277 224.805 495.009 211.161 491.521 178.058H525.006C524.851 209.688 508.883 231.55 478.499 240H447.494Z" fill="#E20816"/>
<path d="M630.576 43.9419L680.028 237.364L646.776 237.054L633.599 192.09H586.937L573.683 237.054L540.43 237.364L589.883 43.8643H630.653L630.576 43.9419ZM592.208 162.476H628.406L609.028 82.3162L592.208 162.476Z" fill="#E20816"/>
<path d="M930.7 237.364L897.37 237.132L887.061 192.4L837.609 192.09L824.974 236.279L793.815 237.442L840.322 43.7093L882.875 46.1126L930.622 237.364H930.7ZM879 162.476L863.498 82.3938C858.847 83.169 859.079 87.6654 857.994 91.0765C851.096 112.706 848.383 140.149 842.88 162.554H879.077L879 162.476Z" fill="#E20816"/>
<path d="M1610.24 108.209L1641.09 44.7946L1674.81 43.6318L1631.48 137.513L1680 237.442L1643.72 236.279L1611.56 170.306L1578.15 235.038L1543.12 237.442L1591.64 140.149L1545.67 43.6318C1555.13 45.1047 1576.6 40.2982 1583.19 46.19C1591.56 53.7099 1603.26 96.193 1610.32 108.209H1610.24Z" fill="#E20816"/>
<path d="M1075.33 43.5543C1084.87 68.4395 1093.78 94.41 1105.18 118.442C1106.65 121.466 1104.79 124.722 1110.21 123.637L1141.14 46.035L1178.66 43.5543L1124.4 161.081V237.287H1090.84V161.081C1090.84 156.429 1056.73 88.1306 1051.62 76.2694C1047.04 65.6486 1041.85 54.7952 1039.14 43.4767H1075.33V43.5543Z" fill="#E20816"/>
<path d="M752.424 74.5638V237.364H718.862V74.5638H677.548V43.5542H795.133C802.729 51.0741 797.691 64.5632 799.008 74.5638H752.424Z" fill="#E20816"/>
<path d="M1452.58 43.5542V74.5638H1408.63V237.364H1375.07V74.5638H1335C1327.4 67.044 1332.44 53.5548 1331.12 43.5542H1452.58Z" fill="#E20816"/>
<path d="M987.515 43.5542V202.478L991.391 206.355H1054.72V237.364H956.511V43.5542H987.515Z" fill="#E20816"/>
<path d="M1530.09 131.466H1468.08V154.724H1530.09V131.466Z" fill="#E20816"/>
<path d="M40.0035 0.641543C93.961 6.90567 128.194 66.9596 164.536 100.65C212.473 64.2633 251.284 -2.40881 320 1.97607C262.02 58.8434 212.057 123.609 155.908 182.138C121.425 218.088 68.3832 277.516 15.2302 279.695C12.2063 279.831 11.04 279.859 7.47025 279.938C12.96 275.854 14.0095 274.82 16.1734 272.45C54.0407 231.216 93.85 191.588 126.003 145.533L0 0.641543C13.04 0.641542 27.5197 -0.801929 40.0035 0.641543Z" fill="#EB0A1B"/>
<path d="M175.04 195.994C201.326 221.607 221.9 257.847 257.446 272.343C271.231 277.965 290.378 280 320 280L205.568 149.972L175.04 195.994Z" fill="#B80613"/>
</svg>
